<svg width="41" height="40" viewBox="0 0 41 40" fill="none" xmlns="http://www.w3.org/2000/svg">
<path d="M20.4106 13.3333C22.1787 13.3333 23.8744 14.0357 25.1246 15.2859C26.3749 16.5362 27.0772 18.2319 27.0772 20C27.0772 21.7681 26.3749 23.4638 25.1246 24.714C23.8744 25.9643 22.1787 26.6666 20.4106 26.6666C18.6425 26.6666 16.9468 25.9643 15.6965 24.714C14.4463 23.4638 13.7439 21.7681 13.7439 20C13.7439 18.2319 14.4463 16.5362 15.6965 15.2859C16.9468 14.0357 18.6425 13.3333 20.4106 13.3333V13.3333ZM20.4106 16.6666C19.5265 16.6666 18.6787 17.0178 18.0536 17.643C17.4284 18.2681 17.0772 19.1159 17.0772 20C17.0772 20.884 17.4284 21.7319 18.0536 22.357C18.6787 22.9821 19.5265 23.3333 20.4106 23.3333C21.2946 23.3333 22.1425 22.9821 22.7676 22.357C23.3927 21.7319 23.7439 20.884 23.7439 20C23.7439 19.1159 23.3927 18.2681 22.7676 17.643C22.1425 17.0178 21.2946 16.6666 20.4106 16.6666ZM17.0772 36.6666C16.6606 36.6666 16.3106 36.3666 16.2439 35.9666L15.6272 31.55C14.5772 31.1333 13.6772 30.5666 12.8106 29.9L8.66058 31.5833C8.29392 31.7166 7.84392 31.5833 7.64392 31.2166L4.31058 25.45C4.20858 25.2783 4.17261 25.0752 4.20942 24.8789C4.24623 24.6826 4.35329 24.5064 4.51058 24.3833L8.02725 21.6166L7.91058 20L8.02725 18.3333L4.51058 15.6166C4.35329 15.4935 4.24623 15.3173 4.20942 15.121C4.17261 14.9247 4.20858 14.7217 4.31058 14.55L7.64392 8.78331C7.84392 8.41665 8.29392 8.26665 8.66058 8.41665L12.8106 10.0833C13.6772 9.43331 14.5772 8.86665 15.6272 8.44998L16.2439 4.03331C16.3106 3.63331 16.6606 3.33331 17.0772 3.33331H23.7439C24.1606 3.33331 24.5106 3.63331 24.5772 4.03331L25.1939 8.44998C26.2439 8.86665 27.1439 9.43331 28.0106 10.0833L32.1606 8.41665C32.5272 8.26665 32.9772 8.41665 33.1772 8.78331L36.5106 14.55C36.7272 14.9166 36.6272 15.3666 36.3106 15.6166L32.7939 18.3333L32.9106 20L32.7939 21.6666L36.3106 24.3833C36.6272 24.6333 36.7272 25.0833 36.5106 25.45L33.1772 31.2166C32.9772 31.5833 32.5272 31.7333 32.1606 31.5833L28.0106 29.9166C27.1439 30.5666 26.2439 31.1333 25.1939 31.55L24.5772 35.9666C24.5106 36.3666 24.1606 36.6666 23.7439 36.6666H17.0772V36.6666ZM19.1606 6.66665L18.5439 11.0166C16.5439 11.4333 14.7772 12.5 13.4939 13.9833L9.47725 12.25L8.22725 14.4166L11.7439 17C11.0772 18.9444 11.0772 21.0555 11.7439 23L8.21058 25.6L9.46058 27.7666L13.5106 26.0333C14.7939 27.5 16.5439 28.5666 18.5272 28.9666L19.1439 33.3333H21.6772L22.2939 28.9833C24.2772 28.5666 26.0272 27.5 27.3106 26.0333L31.3606 27.7666L32.6106 25.6L29.0772 23.0166C29.7439 21.0666 29.7439 18.95 29.0772 17L32.5939 14.4166L31.3439 12.25L27.3272 13.9833C26.0176 12.4672 24.2411 11.4294 22.2772 11.0333L21.6606 6.66665H19.1606V6.66665Z" fill="white"/>
</svg>
