<svg width="40" height="40" viewBox="0 0 40 40" fill="none" xmlns="http://www.w3.org/2000/svg">
<path d="M33.3333 18.3334H38.3333V21.6667H33.3333V18.3334ZM1.66666 18.3334H6.66666V21.6667H1.66666V18.3334ZM21.6667 1.66669V6.66669H18.3333V1.66669H21.6667ZM8.2 5.83335L11.75 9.40002L9.38333 11.75L5.83333 8.21669L8.2 5.83335ZM28.25 9.38335L31.7833 5.83335L34.1667 8.21669L30.6167 11.75L28.25 9.38335V9.38335ZM20 10C22.6522 10 25.1957 11.0536 27.0711 12.929C28.9464 14.8043 30 17.3479 30 20C30 23.7 27.9833 26.9334 25 28.6667V31.6667C25 32.1087 24.8244 32.5326 24.5118 32.8452C24.1993 33.1578 23.7754 33.3334 23.3333 33.3334H16.6667C16.2246 33.3334 15.8007 33.1578 15.4882 32.8452C15.1756 32.5326 15 32.1087 15 31.6667V28.6667C12.0167 26.9334 10 23.7 10 20C10 17.3479 11.0536 14.8043 12.9289 12.929C14.8043 11.0536 17.3478 10 20 10V10ZM23.3333 35V36.6667C23.3333 37.1087 23.1577 37.5326 22.8452 37.8452C22.5326 38.1578 22.1087 38.3334 21.6667 38.3334H18.3333C17.8913 38.3334 17.4674 38.1578 17.1548 37.8452C16.8423 37.5326 16.6667 37.1087 16.6667 36.6667V35H23.3333ZM18.3333 30H21.6667V26.45C24.55 25.7167 26.6667 23.1 26.6667 20C26.6667 18.2319 25.9643 16.5362 24.714 15.286C23.4638 14.0357 21.7681 13.3334 20 13.3334C18.2319 13.3334 16.5362 14.0357 15.286 15.286C14.0357 16.5362 13.3333 18.2319 13.3333 20C13.3333 23.1 15.45 25.7167 18.3333 26.45V30Z" fill="white"/>
</svg>
