<svg width="40" height="40" viewBox="0 0 40 40" fill="none" xmlns="http://www.w3.org/2000/svg">
<path d="M33.3333 13.3333L20 21.6666L6.66666 13.3333V9.99996L20 18.3333L33.3333 9.99996V13.3333ZM33.3333 6.66663H6.66666C4.81666 6.66663 3.33333 8.14996 3.33333 9.99996V30C3.33333 30.884 3.68452 31.7319 4.30964 32.357C4.93476 32.9821 5.78261 33.3333 6.66666 33.3333H33.3333C34.2174 33.3333 35.0652 32.9821 35.6904 32.357C36.3155 31.7319 36.6667 30.884 36.6667 30V9.99996C36.6667 9.1159 36.3155 8.26806 35.6904 7.64294C35.0652 7.01782 34.2174 6.66663 33.3333 6.66663V6.66663Z" fill="white"/>
</svg>
