<svg width="40" height="40" viewBox="0 0 40 40" fill="none" xmlns="http://www.w3.org/2000/svg">
<path d="M20 6.66669C21.7681 6.66669 23.4638 7.36907 24.714 8.61931C25.9643 9.86955 26.6667 11.5652 26.6667 13.3334C26.6667 15.1015 25.9643 16.7972 24.714 18.0474C23.4638 19.2976 21.7681 20 20 20C18.2319 20 16.5362 19.2976 15.286 18.0474C14.0357 16.7972 13.3333 15.1015 13.3333 13.3334C13.3333 11.5652 14.0357 9.86955 15.286 8.61931C16.5362 7.36907 18.2319 6.66669 20 6.66669V6.66669ZM20 10C19.1159 10 18.2681 10.3512 17.643 10.9763C17.0179 11.6015 16.6667 12.4493 16.6667 13.3334C16.6667 14.2174 17.0179 15.0653 17.643 15.6904C18.2681 16.3155 19.1159 16.6667 20 16.6667C20.8841 16.6667 21.7319 16.3155 22.357 15.6904C22.9821 15.0653 23.3333 14.2174 23.3333 13.3334C23.3333 12.4493 22.9821 11.6015 22.357 10.9763C21.7319 10.3512 20.8841 10 20 10V10ZM20 21.6667C24.45 21.6667 33.3333 23.8834 33.3333 28.3334V33.3334H6.66667V28.3334C6.66667 23.8834 15.55 21.6667 20 21.6667ZM20 24.8334C15.05 24.8334 9.83333 27.2667 9.83333 28.3334V30.1667H30.1667V28.3334C30.1667 27.2667 24.95 24.8334 20 24.8334V24.8334Z" fill="white"/>
</svg>
