<svg width="40" height="42" viewBox="0 0 40 42" fill="none" xmlns="http://www.w3.org/2000/svg">
<path d="M33.3333 10.4138C34.3 10.4138 35.0833 10.7609 35.7 11.4378C36.3333 12.1494 36.6667 12.9304 36.6667 13.885V32.977C36.6667 33.9316 36.3333 34.7126 35.7 35.4242C35.0833 36.1011 34.3 36.4483 33.3333 36.4483H6.66666C5.69999 36.4483 4.91666 36.1011 4.29999 35.4242C3.66666 34.7126 3.33333 33.9316 3.33333 32.977V13.885C3.33333 12.9304 3.66666 12.1494 4.29999 11.4378C4.91666 10.7609 5.69999 10.4138 6.66666 10.4138H13.3333V6.94252C13.3333 5.93585 13.6667 5.1201 14.3 4.47792C14.9167 3.81838 15.7 3.47125 16.6667 3.47125H23.3333C24.3 3.47125 25.0833 3.81838 25.7 4.47792C26.3333 5.1201 26.6667 5.93585 26.6667 6.94252V10.4138H33.3333ZM6.66666 13.885V32.977H33.3333V13.885H6.66666ZM23.3333 10.4138V6.94252H16.6667V10.4138H23.3333ZM17.4333 30.3735L28.4167 18.9357L26.0667 16.4885L17.4333 25.4617L13.95 21.8516L11.6 24.2988L17.4333 30.3735Z" fill="white"/>
</svg>
