<svg width="40" height="40" viewBox="0 0 40 40" fill="none" xmlns="http://www.w3.org/2000/svg">
<path d="M20 3.33331C17.8113 3.33331 15.644 3.76441 13.6219 4.60199C11.5998 5.43957 9.76253 6.66722 8.21488 8.21487C5.08928 11.3405 3.33333 15.5797 3.33333 20C3.33333 24.4203 5.08928 28.6595 8.21488 31.7851C9.76253 33.3327 11.5998 34.5604 13.6219 35.398C15.644 36.2356 17.8113 36.6666 20 36.6666C24.4203 36.6666 28.6595 34.9107 31.7851 31.7851C34.9107 28.6595 36.6667 24.4203 36.6667 20C36.6667 18.0666 36.3167 16.15 35.65 14.35L32.9833 17.0166C33.2167 18 33.3333 19 33.3333 20C33.3333 23.5362 31.9286 26.9276 29.4281 29.4281C26.9276 31.9286 23.5362 33.3333 20 33.3333C16.4638 33.3333 13.0724 31.9286 10.5719 29.4281C8.07142 26.9276 6.66666 23.5362 6.66666 20C6.66666 16.4638 8.07142 13.0724 10.5719 10.5719C13.0724 8.0714 16.4638 6.66665 20 6.66665C21 6.66665 22 6.78331 22.9833 7.01665L25.6667 4.33331C23.85 3.68331 21.9333 3.33331 20 3.33331ZM31.6667 3.33331L25 9.99998V12.5L20.75 16.75C20.5 16.6666 20.25 16.6666 20 16.6666C19.1159 16.6666 18.2681 17.0178 17.643 17.643C17.0179 18.2681 16.6667 19.1159 16.6667 20C16.6667 20.884 17.0179 21.7319 17.643 22.357C18.2681 22.9821 19.1159 23.3333 20 23.3333C20.8841 23.3333 21.7319 22.9821 22.357 22.357C22.9821 21.7319 23.3333 20.884 23.3333 20C23.3333 19.75 23.3333 19.5 23.25 19.25L27.5 15H30L36.6667 8.33331H31.6667V3.33331ZM20 9.99998C17.3478 9.99998 14.8043 11.0535 12.9289 12.9289C11.0536 14.8043 10 17.3478 10 20C10 22.6521 11.0536 25.1957 12.9289 27.071C14.8043 28.9464 17.3478 30 20 30C22.6522 30 25.1957 28.9464 27.0711 27.071C28.9464 25.1957 30 22.6521 30 20H26.6667C26.6667 21.7681 25.9643 23.4638 24.714 24.714C23.4638 25.9643 21.7681 26.6666 20 26.6666C18.2319 26.6666 16.5362 25.9643 15.2859 24.714C14.0357 23.4638 13.3333 21.7681 13.3333 20C13.3333 18.2319 14.0357 16.5362 15.2859 15.2859C16.5362 14.0357 18.2319 13.3333 20 13.3333V9.99998Z" fill="white"/>
</svg>
